# AST/ASF file generated using VICON BodyLanguage
# -----------------------------------------------
:version 1.10
:name VICON
:units
  mass 1.0
  length 0.45
  angle deg
:documentation
   .ast/.asf automatically generated from VICON data using
   VICON BodyBuilder and BodyLanguage model FoxedUp or BRILLIANT.MOD
:root
   order TX TY TZ RX RY RZ
   axis XYZ
   position 0 0 0  
   orientation 0 0 0 
:bonedata
  begin
     id 1 
     name lhipjoint
     direction 0.716712 -0.619771 0.3197 
     length 2.67249 
     axis 0 0 0  XYZ
  end
  begin
     id 2 
     name lfemur
     direction 0.34202 -0.939693 0  
     length 7.04375  
     axis 0 0 20  XYZ
    dof rx ry rz
    limits (-160.0 20.0)
           (-70.0 70.0)
           (-60.0 70.0)
  end
  begin
     id 3 
     name ltibia
     direction 0.34202 -0.939693 0   
     length 8.12233   
     axis 0 0 20   XYZ
    dof rx
    limits (-10.0 170.0)
  end
  begin
     id 4 
     name lfoot
     direction 0.0986665 -0.271084 0.957485   
     length 1.97802   
     axis -90 7.62852e-016 20   XYZ
    dof rx rz
    limits (-45.0 90.0)
           (-70.0 20.0)
  end
  begin
     id 5 
     name ltoes
     direction 1.53569e-011 -4.21962e-011 1   
     length 0.991074   
     axis -90 7.62852e-016 20   XYZ
    dof rx
    limits (-90.0 20.0)
  end
  begin
     id 6 
     name rhipjoint
     direction -0.684484 -0.647907 0.334213   
     length 2.55643  
     axis 0 0 0  XYZ 
  end
  begin
     id 7 
     name rfemur
     direction -0.34202 -0.939693 0   
     length 7.00452   
     axis 0 0 -20   XYZ
    dof rx ry rz
    limits (-160.0 20.0)
           (-70.0 70.0)
           (-70.0 60.0)
  end
  begin
     id 8 
     name rtibia
     direction -0.34202 -0.939693 0   
     length 7.98545   
     axis 0 0 -20   XYZ
    dof rx
    limits (-10.0 170.0)
 end
 begin
     id 9 
     name rfoot
     direction -0.0877828 -0.241181 0.966502   
     length 2.17223  
     axis -90 -7.62852e-016 -20   XYZ
    dof rx rz
    limits (-45.0 90.0)
           (-20.0 70.0)
  end
  begin
     id 10 
     name rtoes
     direction -1.53586e-011 -4.22014e-011 1   
     length 1.0886   
     axis -90 -7.62852e-016 -20   XYZ
    dof rx
    limits (-90.0 20.0)
  end
  begin
     id 11 
     name lowerback
     direction -0.0470064 0.989573 -0.136149   
     length 2.05976   
     axis 0 0 0   XYZ
    dof rx ry rz
    limits (-20.0 45.0)
           (-30.0 30.0)
           (-30.0 30.0)
  end
  begin
     id 12 
     name upperback
     direction -0.00532895 0.998093 0.0615045   
     length 2.02286   
     axis 0 0 0   XYZ
    dof rx ry rz
    limits (-20.0 45.0)
           (-30.0 30.0)
           (-30.0 30.0)
  end
  begin
     id 13 
     name thorax
     direction 0.0171558 0.991502 0.128954   
     length 2.09196   
     axis 0 0 0   XYZ
    dof rx ry rz
    limits (-20.0 45.0)
           (-30.0 30.0)
           (-30.0 30.0)
  end
  begin
     id 14 
     name lowerneck
     direction 0.0221176 0.995362 0.0936194   
     length 1.70234   
     axis 0 0 0   XYZ
    dof rx ry rz
    limits (-20.0 45.0)
           (-30.0 30.0)
           (-30.0 30.0)
  end
  begin
     id 15 
     name upperneck
     direction -0.0237973 0.998511 -0.0490877   
     length 1.66068   
     axis 0 0 0   XYZ
    dof rx ry rz
    limits (-20.0 45.0)
           (-30.0 30.0)
           (-30.0 30.0)
  end
  begin
     id 16
     name head
     direction -0.00980141 0.999531 -0.0289958  
     length 1.82618  
     axis 0 0 0   XYZ
    dof rx ry rz
    limits (-20.0 45.0)
           (-30.0 30.0)
           (-30.0 30.0)
  end
  begin
     id 17 
     name lclavicle
     direction 0.894784 0.445864 -0.0238113  
     length 3.37997  
     axis 0 0 0   XYZ
    dof ry rz
    limits (-20.0 10.0)
           (0.0 20.0)
  end
  begin
     id 18 
     name lhumerus
     direction 1 -4.48975e-011 6.49229e-028   
     length 5.79016   
     axis 180 -30 -90   XYZ
    dof rx ry rz
    limits (-60.0 90.0)
           (-90.0 90.0)
           (-90.0 90.0)
  end
  begin
     id 19
     name lradius
     direction 1 -4.48959e-011 2.80427e-027   
     length 3.48314   
     axis 180 -30 -90   XYZ
    dof rx
    limits (-10.0 170.0)
  end
  begin
     id 20
     name lwrist
     direction 1 -4.48938e-011 5.60449e-029   
     length 1.74157   
     axis 8.48505e-016 90 90   XYZ
    dof ry
    limits (-180.0 0.0)
 end
  begin
     id 21 
     name lhand
     direction 1 -4.49048e-011 1.1209e-028   
     length 0.587065   
     axis -7.15228e-017 90 90   XYZ
    dof rx rz
    limits (-90.0 90.0)
           (-45.0 45.0)
  end
  begin
     id 22 
     name lfingers
     direction 1 -4.49036e-011 2.24179e-028   
     length 0.473307   
     axis -1.43046e-016 90 90   XYZ
    dof rx
    limits (0.0 90.0)
  end
  begin
     id 23
     name lthumb
     direction 0.707107 -6.34878e-011 0.707107   
     length 0.679577   
     axis -90 45 2.85299e-015   XYZ
    dof rx rz
    limits (-45.0 45.0)
           (-45.0 45.0)
  end
  begin
     id 24 
     name rclavicle
     direction -0.952963 0.303049 0.00480459   
     length 3.50503  
     axis 0 0 0   XYZ 
    dof ry rz
    limits (-10.0 20.0)
           (-20.0 0.0)
  end
  begin
     id 25 
     name rhumerus
     direction -1 -4.48973e-011 -1.5431e-027  
     length 5.69822   
     axis 180 30 90   XYZ
    dof rx ry rz
    limits (-90.0 60.0)
           (-90.0 90.0)
           (-90.0 90.0)
  end
  begin
     id 26 
     name rradius
     direction -1 -4.4896e-011 2.11972e-027   
     length 3.58077   
     axis 180 30 90   XYZ
    dof rx
    limits (-10.0 170.0)
  end
  begin
     id 27 
     name rwrist
     direction -1 -4.48943e-011 5.60449e-029   
     length 1.79039   
     axis 8.48505e-016 -90 -90   XYZ
    dof ry
    limits (-180.0 0.0)
  end
  begin
     id 28
     name rhand
     direction -1 -4.49007e-011 1.1209e-028   
     length 0.620156   
     axis -7.15228e-017 -90 -90   XYZ
    dof rx rz
    limits (-90.0 90.0)
           (-45.0 45.0)
  end
  begin
     id 29
     name rfingers
     direction -1 -4.49025e-011 2.24179e-028   
     length 0.499985   
     axis -1.43046e-016 -90 -90   XYZ
    dof rx
    limits (0.0 90.0)
  end
  begin
     id 30
     name rthumb
     direction -0.707107 -6.3481e-011 0.707107   
     length 0.717882   
     axis -90 -45 -2.85299e-015   XYZ
    dof rx rz
    limits (-45.0 45.0)
           (-45.0 45.0)
  end
:hierarchy
  begin
    root lhipjoint rhipjoint lowerback
    lhipjoint lfemur
    lfemur ltibia
    ltibia lfoot
    lfoot ltoes
    rhipjoint rfemur
    rfemur rtibia
    rtibia rfoot
    rfoot rtoes
    lowerback upperback
    upperback thorax
    thorax lowerneck lclavicle rclavicle
    lowerneck upperneck
    upperneck head
    lclavicle lhumerus
    lhumerus lradius
    lradius lwrist
    lwrist lhand lthumb
    lhand lfingers
    rclavicle rhumerus
    rhumerus rradius
    rradius rwrist
    rwrist rhand rthumb
    rhand rfingers
  end

#!OML:ASF H:\Terrain\Patient Classification 1\PaulMetrics\March17Take4\PaulMetrics.ASF
:FULLY-SPECIFIED
:DEGREES
784
root 5.6466 16.6086 -32.2393 -162.341 -72.0366 -190.103
lowerback 0.445263 0.759129 -6.2913
upperback -3.49932 0.714917 -1.58062
thorax -3.93768 0.49326 1.86088
lowerneck 1.79684 15.4582 12.6286
upperneck 7.03036 21.7408 -14.9703
head 4.85269 10.6575 -5.22755
rclavicle -2.93145e-014 -2.06736e-014
rhumerus -49.4621 6.37418 -84.8673
rradius 37.1667
rwrist -7.85827
rhand -15.9321 -32.2748
rfingers 7.12502
rthumb 10.2656 -62.0043
lclavicle -2.93145e-014 -2.06736e-014
lhumerus -46.9222 -19.1579 88.5403
lradius 57.5713
lwrist 22.9886
lhand -14.9454 -20.3478
lfingers 7.12502
lthumb 11.2174 9.3323
rfemur -31.2565 13.5447 8.20821
rtibia 31.6421
rfoot -7.4157 -6.7003
rtoes -15.4826
lfemur -4.87425 -14.3012 -24.8435
ltibia 36.5112
lfoot -7.79758 -14.3875
ltoes 22.7152
785
root 5.55852 16.6138 -32.323 -162.492 -72.7844 -189.936
lowerback 0.442719 0.81422 -6.07887
upperback -3.48797 0.801566 -1.50252
thorax -3.92725 0.532381 1.81991
lowerneck 1.99149 15.3129 12.431
upperneck 6.61473 21.5203 -15.0195
head 4.64755 10.5658 -5.27386
rclavicle -2.04997e-015 6.36111e-015
rhumerus -49.3642 6.44019 -84.7105
rradius 37.0474
rwrist -7.99505
rhand -16.1015 -32.2881
rfingers 7.12502
rthumb 10.1023 -62.0256
lclavicle -2.04997e-015 6.36111e-015
lhumerus -46.998 -18.6688 88.5968
lradius 56.5855
lwrist 22.4297
lhand -15.0587 -20.2276
lfingers 7.12502
lthumb 11.1081 9.45843
rfemur -30.6906 12.5074 8.94871
rtibia 31.8132
rfoot -7.51088 -6.27704
rtoes -13.505
lfemur -5.67981 -14.0289 -24.2921
ltibia 38.415
lfoot -6.08034 -14.3964
ltoes 23.69
786
root 5.47317 16.6284 -32.4054 -164.193 -73.5982 -188.237
lowerback 0.587256 0.67301 -5.64029
upperback -3.52091 0.638391 -1.07058
thorax -4.02692 0.452956 2.0269
lowerneck 2.38885 15.3883 11.6744
upperneck 6.30012 21.5927 -14.893
head 4.40101 10.612 -5.17978
rclavicle 1.57164e-014 -3.29983e-014
rhumerus -49.3934 7.44251 -84.6436
rradius 37.2784
rwrist -8.30917
rhand -16.1184 -32.5694
rfingers 7.12502
rthumb 10.0859 -62.3077
lclavicle 1.57164e-014 -3.29983e-014
lhumerus -47.2392 -17.6694 88.6945
lradius 55.662
lwrist 22.0672
lhand -14.5528 -20.8993
lfingers 7.12502
lthumb 11.5961 8.75982
rfemur -29.9952 11.8906 10.1109
rtibia 31.9072
rfoot -7.92128 -6.16708
rtoes -12.871
lfemur -6.61567 -13.5876 -23.267
ltibia 40.4705
lfoot -4.3706 -14.1036
ltoes 22.4253
787
root 5.38873 16.6449 -32.4848 -164.146 -74.3258 -188.354
lowerback 0.741265 0.494986 -5.71519
upperback -3.49981 0.402352 -0.831428
thorax -4.07691 0.345636 2.32537
lowerneck 2.40987 15.5484 11.1962
upperneck 6.3041 21.792 -14.7692
head 4.35941 10.7012 -5.06471
rclavicle 3.90674e-014 -1.31198e-014
rhumerus -49.3091 8.11216 -84.495
rradius 37.5632
rwrist -8.3454
rhand -15.9377 -32.9317
rfingers 7.12502
rthumb 10.2602 -62.6615
lclavicle 3.90674e-014 -1.31198e-014
lhumerus -47.1885 -16.7166 88.5656
lradius 54.4885
lwrist 21.5631
lhand -14.1608 -20.994
lfingers 7.12502
lthumb 11.974 8.64347
rfemur -29.2359 11.2676 10.6313
rtibia 31.8117
rfoot -8.52941 -6.28055
rtoes -14.3379
lfemur -7.76632 -13.0035 -22.8525
ltibia 42.6889
lfoot -2.80143 -13.6103
ltoes 18.9242
788
root 5.30415 16.6511 -32.5638 -163.406 -75.1178 -189.183
lowerback 0.823739 0.681773 -5.62569
upperback -3.37071 0.646595 -1.07092
thorax -4.00425 0.456151 2.01678
lowerneck 1.88804 15.319 11.628
upperneck 6.46312 21.4722 -14.7036
head 4.48891 10.5335 -5.0852
rclavicle -3.87444e-014 1.03368e-014
rhumerus -49.183 7.29679 -84.2946
rradius 37.6912
rwrist -8.20308
rhand -15.7484 -32.9237
rfingers 7.12502
rthumb 10.4429 -62.6444
lclavicle -3.87444e-014 1.03368e-014
lhumerus -46.9027 -17.2094 88.4091
lradius 53.4473
lwrist 21.4219
lhand -14.384 -20.5147
lfingers 7.12502
lthumb 11.7588 9.13519
rfemur -28.3801 10.5882 10.9415
rtibia 31.5401
rfoot -9.04876 -6.51521
rtoes -16.6977
lfemur -8.93414 -12.7315 -22.6805
ltibia 45.0315
lfoot -1.05224 -12.914
ltoes 18.223
789
root 5.2234 16.6697 -32.6416 -164.55 -76.0224 -187.969
lowerback 0.908288 0.861761 -5.02231
upperback -3.3289 0.903346 -1.11986
thorax -4.01312 0.565098 1.61695
lowerneck 1.65508 15.0374 11.9255
upperneck 6.37453 21.0864 -14.8746
head 4.49902 10.3417 -5.19979
rclavicle -2.58172e-014 1.70955e-014
rhumerus -49.1307 7.04577 -84.2541
rradius 37.7935
rwrist -8.48844
rhand -15.8559 -32.7491
rfingers 7.12502
rthumb 10.3391 -62.4749
lclavicle -2.58172e-014 1.70955e-014
lhumerus -46.7083 -17.4515 88.377
lradius 52.5687
lwrist 21.3316
lhand -14.4175 -20.2319
lfingers 7.12502
lthumb 11.7265 9.41987
rfemur -27.629 10.2464 11.749
rtibia 31.2375
rfoot -9.52572 -6.95203
rtoes -17.4984
lfemur -10.2847 -12.6987 -21.8751
ltibia 47.4491
lfoot 0.937915 -12.0701
ltoes 20.2018
790
root 5.1419 16.7083 -32.7164 -165.84 -76.8497 -186.484
lowerback 0.915549 0.915793 -4.53187
upperback -3.38412 0.994069 -1.02459
thorax -4.07047 0.599429 1.43656
lowerneck 1.6736 14.8693 12.1746
upperneck 6.31372 20.8902 -15.2673
head 4.52097 10.2422 -5.37224
rclavicle 3.73467e-014 -1.23246e-014
rhumerus -49.0671 7.00878 -84.0993
rradius 37.8284
rwrist -8.38424
rhand -16.1282 -32.7571
rfingers 7.12502
rthumb 10.0765 -62.4959
lclavicle 3.73467e-014 -1.23246e-014
lhumerus -46.3126 -16.8796 88.2082
lradius 51.279
lwrist 20.6306
lhand -13.7633 -20.1255
lfingers 7.12502
lthumb 12.3573 9.48927
rfemur -27.065 9.93623 12.5417
rtibia 30.9335
rfoot -9.8808 -7.27353
rtoes -15.8626
lfemur -11.7633 -12.8331 -20.967
ltibia 49.8602
lfoot 2.76093 -10.9151
ltoes 24.6304
